<mxfile host="Electron" modified="2024-04-23T15:29:53.967Z" agent="Mozilla/5.0 (Macintosh; Intel Mac OS X 10_15_7) AppleWebKit/537.36 (KHTML, like Gecko) draw.io/22.1.2 Chrome/114.0.5735.289 Electron/25.9.4 Safari/537.36" etag="2DOiu-IgXqhFnXsAA4xR" version="22.1.2" type="device" pages="5">
  <diagram name="Gradle subprojects" id="JzJumpAzIFgfKIvPt0l8">
    <mxGraphModel dx="1026" dy="708" grid="1" gridSize="10" guides="1" tooltips="1" connect="1" arrows="1" fold="1" page="1" pageScale="1" pageWidth="1169" pageHeight="827" math="0" shadow="0">
      <root>
        <mxCell id="ITFUDiihViseG53BL7jd-0" />
        <mxCell id="ITFUDiihViseG53BL7jd-1" parent="ITFUDiihViseG53BL7jd-0" />
        <mxCell id="pfsJa-0N5m8jaEWDWGbK-1" value="internal" style="rounded=0;whiteSpace=wrap;html=1;" parent="ITFUDiihViseG53BL7jd-1" vertex="1">
          <mxGeometry x="480" y="520" width="120" height="40" as="geometry" />
        </mxCell>
        <mxCell id="V6_7ll6TL55q-I8HMWWy-0" value="implementation" style="rounded=0;orthogonalLoop=1;jettySize=auto;html=1;entryX=0;entryY=0.5;entryDx=0;entryDy=0;edgeStyle=orthogonalEdgeStyle;exitX=0.5;exitY=1;exitDx=0;exitDy=0;" parent="ITFUDiihViseG53BL7jd-1" source="dYRQPacdvhrbfouNJN4h-2" target="pfsJa-0N5m8jaEWDWGbK-1" edge="1">
          <mxGeometry relative="1" as="geometry" />
        </mxCell>
        <mxCell id="dYRQPacdvhrbfouNJN4h-2" value="types" style="rounded=0;whiteSpace=wrap;html=1;" parent="ITFUDiihViseG53BL7jd-1" vertex="1">
          <mxGeometry x="320" y="200" width="120" height="40" as="geometry" />
        </mxCell>
        <mxCell id="qGAECRP5sxto-l2sTSsy-3" value="implementation" style="edgeStyle=none;curved=1;rounded=0;orthogonalLoop=1;jettySize=auto;html=1;fontSize=12;startSize=8;endSize=8;" parent="ITFUDiihViseG53BL7jd-1" source="qGAECRP5sxto-l2sTSsy-1" target="dYRQPacdvhrbfouNJN4h-2" edge="1">
          <mxGeometry relative="1" as="geometry" />
        </mxCell>
        <mxCell id="EELc4-M8Ysgaq6kTbr46-0" value="implementation" style="edgeStyle=orthogonalEdgeStyle;rounded=0;orthogonalLoop=1;jettySize=auto;html=1;fontSize=12;startSize=8;endSize=8;entryX=1;entryY=0.5;entryDx=0;entryDy=0;exitX=0.5;exitY=1;exitDx=0;exitDy=0;" edge="1" parent="ITFUDiihViseG53BL7jd-1" source="qGAECRP5sxto-l2sTSsy-1" target="pfsJa-0N5m8jaEWDWGbK-1">
          <mxGeometry relative="1" as="geometry" />
        </mxCell>
        <mxCell id="qGAECRP5sxto-l2sTSsy-1" value="types-kotlinx-serialization" style="rounded=0;whiteSpace=wrap;html=1;" parent="ITFUDiihViseG53BL7jd-1" vertex="1">
          <mxGeometry x="640" y="200" width="160" height="40" as="geometry" />
        </mxCell>
        <mxCell id="qGAECRP5sxto-l2sTSsy-5" value="implementation" style="edgeStyle=none;curved=1;rounded=0;orthogonalLoop=1;jettySize=auto;html=1;fontSize=12;startSize=8;endSize=8;" parent="ITFUDiihViseG53BL7jd-1" source="qGAECRP5sxto-l2sTSsy-4" target="qGAECRP5sxto-l2sTSsy-1" edge="1">
          <mxGeometry relative="1" as="geometry" />
        </mxCell>
        <mxCell id="qGAECRP5sxto-l2sTSsy-6" value="implementation" style="edgeStyle=none;curved=1;rounded=0;orthogonalLoop=1;jettySize=auto;html=1;fontSize=12;startSize=8;endSize=8;" parent="ITFUDiihViseG53BL7jd-1" source="qGAECRP5sxto-l2sTSsy-4" target="dYRQPacdvhrbfouNJN4h-2" edge="1">
          <mxGeometry relative="1" as="geometry" />
        </mxCell>
        <mxCell id="EELc4-M8Ysgaq6kTbr46-1" value="testImplementation" style="edgeStyle=none;curved=1;rounded=0;orthogonalLoop=1;jettySize=auto;html=1;fontSize=12;startSize=8;endSize=8;" edge="1" parent="ITFUDiihViseG53BL7jd-1" source="qGAECRP5sxto-l2sTSsy-4" target="pfsJa-0N5m8jaEWDWGbK-1">
          <mxGeometry relative="1" as="geometry" />
        </mxCell>
        <mxCell id="qGAECRP5sxto-l2sTSsy-4" value="samples" style="rounded=0;whiteSpace=wrap;html=1;" parent="ITFUDiihViseG53BL7jd-1" vertex="1">
          <mxGeometry x="480" y="360" width="120" height="40" as="geometry" />
        </mxCell>
      </root>
    </mxGraphModel>
  </diagram>
  <diagram id="AFsdHeCV1S7wRy8MzkPV" name="API (org.kotools.types)">
    <mxGraphModel dx="1026" dy="1108" grid="1" gridSize="10" guides="1" tooltips="1" connect="1" arrows="1" fold="1" page="0" pageScale="1" pageWidth="1169" pageHeight="827" math="0" shadow="0">
      <root>
        <mxCell id="0" />
        <mxCell id="1" parent="0" />
        <mxCell id="6lr3lpDYHeMcFkOCxxEU-3" value="Zero" style="swimlane;fontStyle=1;align=center;verticalAlign=top;childLayout=stackLayout;horizontal=1;startSize=26;horizontalStack=0;resizeParent=1;resizeParentMax=0;resizeLast=0;collapsible=1;marginBottom=0;whiteSpace=wrap;html=1;fontSize=16;" vertex="1" parent="1">
          <mxGeometry x="160" y="-200" width="200" height="138" as="geometry">
            <mxRectangle x="80" y="80" width="80" height="30" as="alternateBounds" />
          </mxGeometry>
        </mxCell>
        <mxCell id="6lr3lpDYHeMcFkOCxxEU-5" value="" style="line;strokeWidth=1;fillColor=none;align=left;verticalAlign=middle;spacingTop=-1;spacingLeft=3;spacingRight=3;rotatable=0;labelPosition=right;points=[];portConstraint=eastwest;strokeColor=inherit;fontSize=16;" vertex="1" parent="6lr3lpDYHeMcFkOCxxEU-3">
          <mxGeometry y="26" width="200" height="8" as="geometry" />
        </mxCell>
        <mxCell id="6lr3lpDYHeMcFkOCxxEU-6" value="[x] equals(Any?): Boolean" style="text;strokeColor=none;fillColor=none;align=left;verticalAlign=top;spacingLeft=4;spacingRight=4;overflow=hidden;rotatable=0;points=[[0,0.5],[1,0.5]];portConstraint=eastwest;whiteSpace=wrap;html=1;fontSize=16;" vertex="1" parent="6lr3lpDYHeMcFkOCxxEU-3">
          <mxGeometry y="34" width="200" height="26" as="geometry" />
        </mxCell>
        <mxCell id="6lr3lpDYHeMcFkOCxxEU-7" value="[x] hashCode(): Int" style="text;strokeColor=none;fillColor=none;align=left;verticalAlign=top;spacingLeft=4;spacingRight=4;overflow=hidden;rotatable=0;points=[[0,0.5],[1,0.5]];portConstraint=eastwest;whiteSpace=wrap;html=1;fontSize=16;" vertex="1" parent="6lr3lpDYHeMcFkOCxxEU-3">
          <mxGeometry y="60" width="200" height="26" as="geometry" />
        </mxCell>
        <mxCell id="6lr3lpDYHeMcFkOCxxEU-8" value="[x] toByte(): Byte" style="text;strokeColor=none;fillColor=none;align=left;verticalAlign=top;spacingLeft=4;spacingRight=4;overflow=hidden;rotatable=0;points=[[0,0.5],[1,0.5]];portConstraint=eastwest;whiteSpace=wrap;html=1;fontSize=16;" vertex="1" parent="6lr3lpDYHeMcFkOCxxEU-3">
          <mxGeometry y="86" width="200" height="26" as="geometry" />
        </mxCell>
        <mxCell id="6lr3lpDYHeMcFkOCxxEU-9" value="[x] toString(): String" style="text;strokeColor=none;fillColor=none;align=left;verticalAlign=top;spacingLeft=4;spacingRight=4;overflow=hidden;rotatable=0;points=[[0,0.5],[1,0.5]];portConstraint=eastwest;whiteSpace=wrap;html=1;fontSize=16;" vertex="1" parent="6lr3lpDYHeMcFkOCxxEU-3">
          <mxGeometry y="112" width="200" height="26" as="geometry" />
        </mxCell>
        <mxCell id="6lr3lpDYHeMcFkOCxxEU-10" value="EmailAddress" style="swimlane;fontStyle=1;align=center;verticalAlign=top;childLayout=stackLayout;horizontal=1;startSize=26;horizontalStack=0;resizeParent=1;resizeParentMax=0;resizeLast=0;collapsible=1;marginBottom=0;whiteSpace=wrap;html=1;fontSize=16;" vertex="1" parent="1">
          <mxGeometry x="160" y="80" width="240" height="112" as="geometry">
            <mxRectangle x="80" y="80" width="80" height="30" as="alternateBounds" />
          </mxGeometry>
        </mxCell>
        <mxCell id="6lr3lpDYHeMcFkOCxxEU-11" value="" style="line;strokeWidth=1;fillColor=none;align=left;verticalAlign=middle;spacingTop=-1;spacingLeft=3;spacingRight=3;rotatable=0;labelPosition=right;points=[];portConstraint=eastwest;strokeColor=inherit;fontSize=16;" vertex="1" parent="6lr3lpDYHeMcFkOCxxEU-10">
          <mxGeometry y="26" width="240" height="8" as="geometry" />
        </mxCell>
        <mxCell id="6lr3lpDYHeMcFkOCxxEU-12" value="[x] equals(Any?): Boolean" style="text;strokeColor=none;fillColor=none;align=left;verticalAlign=top;spacingLeft=4;spacingRight=4;overflow=hidden;rotatable=0;points=[[0,0.5],[1,0.5]];portConstraint=eastwest;whiteSpace=wrap;html=1;fontSize=16;" vertex="1" parent="6lr3lpDYHeMcFkOCxxEU-10">
          <mxGeometry y="34" width="240" height="26" as="geometry" />
        </mxCell>
        <mxCell id="6lr3lpDYHeMcFkOCxxEU-13" value="[x] hashCode(): Int" style="text;strokeColor=none;fillColor=none;align=left;verticalAlign=top;spacingLeft=4;spacingRight=4;overflow=hidden;rotatable=0;points=[[0,0.5],[1,0.5]];portConstraint=eastwest;whiteSpace=wrap;html=1;fontSize=16;" vertex="1" parent="6lr3lpDYHeMcFkOCxxEU-10">
          <mxGeometry y="60" width="240" height="26" as="geometry" />
        </mxCell>
        <mxCell id="6lr3lpDYHeMcFkOCxxEU-15" value="[x] toString(): String" style="text;strokeColor=none;fillColor=none;align=left;verticalAlign=top;spacingLeft=4;spacingRight=4;overflow=hidden;rotatable=0;points=[[0,0.5],[1,0.5]];portConstraint=eastwest;whiteSpace=wrap;html=1;fontSize=16;" vertex="1" parent="6lr3lpDYHeMcFkOCxxEU-10">
          <mxGeometry y="86" width="240" height="26" as="geometry" />
        </mxCell>
        <mxCell id="6lr3lpDYHeMcFkOCxxEU-16" value="Companion" style="swimlane;fontStyle=1;align=center;verticalAlign=top;childLayout=stackLayout;horizontal=1;startSize=26;horizontalStack=0;resizeParent=1;resizeParentMax=0;resizeLast=0;collapsible=1;marginBottom=0;whiteSpace=wrap;html=1;fontSize=16;" vertex="1" parent="1">
          <mxGeometry x="520" y="80" width="360" height="164" as="geometry">
            <mxRectangle x="80" y="80" width="80" height="30" as="alternateBounds" />
          </mxGeometry>
        </mxCell>
        <mxCell id="6lr3lpDYHeMcFkOCxxEU-24" value="[x] PATTERN: String" style="text;strokeColor=none;fillColor=none;align=left;verticalAlign=top;spacingLeft=4;spacingRight=4;overflow=hidden;rotatable=0;points=[[0,0.5],[1,0.5]];portConstraint=eastwest;whiteSpace=wrap;html=1;fontSize=16;" vertex="1" parent="6lr3lpDYHeMcFkOCxxEU-16">
          <mxGeometry y="26" width="360" height="26" as="geometry" />
        </mxCell>
        <mxCell id="6lr3lpDYHeMcFkOCxxEU-17" value="" style="line;strokeWidth=1;fillColor=none;align=left;verticalAlign=middle;spacingTop=-1;spacingLeft=3;spacingRight=3;rotatable=0;labelPosition=right;points=[];portConstraint=eastwest;strokeColor=inherit;fontSize=16;" vertex="1" parent="6lr3lpDYHeMcFkOCxxEU-16">
          <mxGeometry y="52" width="360" height="8" as="geometry" />
        </mxCell>
        <mxCell id="6lr3lpDYHeMcFkOCxxEU-18" value="[x] fromString(Any): EmailAddress" style="text;strokeColor=none;fillColor=none;align=left;verticalAlign=top;spacingLeft=4;spacingRight=4;overflow=hidden;rotatable=0;points=[[0,0.5],[1,0.5]];portConstraint=eastwest;whiteSpace=wrap;html=1;fontSize=16;" vertex="1" parent="6lr3lpDYHeMcFkOCxxEU-16">
          <mxGeometry y="60" width="360" height="26" as="geometry" />
        </mxCell>
        <mxCell id="6lr3lpDYHeMcFkOCxxEU-26" value="[x]&amp;nbsp;fromString(Any, Any): EmailAddress" style="text;strokeColor=none;fillColor=none;align=left;verticalAlign=top;spacingLeft=4;spacingRight=4;overflow=hidden;rotatable=0;points=[[0,0.5],[1,0.5]];portConstraint=eastwest;whiteSpace=wrap;html=1;fontSize=16;" vertex="1" parent="6lr3lpDYHeMcFkOCxxEU-16">
          <mxGeometry y="86" width="360" height="26" as="geometry" />
        </mxCell>
        <mxCell id="6lr3lpDYHeMcFkOCxxEU-27" value="[x] fromStringOrNull(Any): EmailAddress?" style="text;strokeColor=none;fillColor=none;align=left;verticalAlign=top;spacingLeft=4;spacingRight=4;overflow=hidden;rotatable=0;points=[[0,0.5],[1,0.5]];portConstraint=eastwest;whiteSpace=wrap;html=1;fontSize=16;" vertex="1" parent="6lr3lpDYHeMcFkOCxxEU-16">
          <mxGeometry y="112" width="360" height="26" as="geometry" />
        </mxCell>
        <mxCell id="6lr3lpDYHeMcFkOCxxEU-28" value="[x] fromStringOrNull(Any, Any): EmailAddress?" style="text;strokeColor=none;fillColor=none;align=left;verticalAlign=top;spacingLeft=4;spacingRight=4;overflow=hidden;rotatable=0;points=[[0,0.5],[1,0.5]];portConstraint=eastwest;whiteSpace=wrap;html=1;fontSize=16;" vertex="1" parent="6lr3lpDYHeMcFkOCxxEU-16">
          <mxGeometry y="138" width="360" height="26" as="geometry" />
        </mxCell>
        <mxCell id="6lr3lpDYHeMcFkOCxxEU-21" value="" style="endArrow=open;startArrow=circlePlus;endFill=0;startFill=0;endSize=8;html=1;rounded=0;fontSize=12;curved=1;" edge="1" parent="1" source="6lr3lpDYHeMcFkOCxxEU-10" target="6lr3lpDYHeMcFkOCxxEU-16">
          <mxGeometry width="160" relative="1" as="geometry">
            <mxPoint x="360" y="260" as="sourcePoint" />
            <mxPoint x="520" y="260" as="targetPoint" />
          </mxGeometry>
        </mxCell>
        <mxCell id="6lr3lpDYHeMcFkOCxxEU-29" value="Companion" style="swimlane;fontStyle=1;align=center;verticalAlign=top;childLayout=stackLayout;horizontal=1;startSize=26;horizontalStack=0;resizeParent=1;resizeParentMax=0;resizeLast=0;collapsible=1;marginBottom=0;whiteSpace=wrap;html=1;fontSize=16;" vertex="1" parent="1">
          <mxGeometry x="520" y="-200" width="240" height="86" as="geometry">
            <mxRectangle x="80" y="80" width="80" height="30" as="alternateBounds" />
          </mxGeometry>
        </mxCell>
        <mxCell id="6lr3lpDYHeMcFkOCxxEU-30" value="" style="line;strokeWidth=1;fillColor=none;align=left;verticalAlign=middle;spacingTop=-1;spacingLeft=3;spacingRight=3;rotatable=0;labelPosition=right;points=[];portConstraint=eastwest;strokeColor=inherit;fontSize=16;" vertex="1" parent="6lr3lpDYHeMcFkOCxxEU-29">
          <mxGeometry y="26" width="240" height="8" as="geometry" />
        </mxCell>
        <mxCell id="6lr3lpDYHeMcFkOCxxEU-31" value="[ ] fromByte(Byte): Zero" style="text;strokeColor=none;fillColor=none;align=left;verticalAlign=top;spacingLeft=4;spacingRight=4;overflow=hidden;rotatable=0;points=[[0,0.5],[1,0.5]];portConstraint=eastwest;whiteSpace=wrap;html=1;fontSize=16;" vertex="1" parent="6lr3lpDYHeMcFkOCxxEU-29">
          <mxGeometry y="34" width="240" height="26" as="geometry" />
        </mxCell>
        <mxCell id="6lr3lpDYHeMcFkOCxxEU-37" value="[ ] fromByteOrNull(Byte): Zero?" style="text;strokeColor=none;fillColor=none;align=left;verticalAlign=top;spacingLeft=4;spacingRight=4;overflow=hidden;rotatable=0;points=[[0,0.5],[1,0.5]];portConstraint=eastwest;whiteSpace=wrap;html=1;fontSize=16;" vertex="1" parent="6lr3lpDYHeMcFkOCxxEU-29">
          <mxGeometry y="60" width="240" height="26" as="geometry" />
        </mxCell>
        <mxCell id="6lr3lpDYHeMcFkOCxxEU-36" value="" style="endArrow=open;startArrow=circlePlus;endFill=0;startFill=0;endSize=8;html=1;rounded=0;fontSize=12;curved=1;" edge="1" parent="1" source="6lr3lpDYHeMcFkOCxxEU-3" target="6lr3lpDYHeMcFkOCxxEU-29">
          <mxGeometry width="160" relative="1" as="geometry">
            <mxPoint x="410" y="153" as="sourcePoint" />
            <mxPoint x="530" y="161" as="targetPoint" />
          </mxGeometry>
        </mxCell>
      </root>
    </mxGraphModel>
  </diagram>
  <diagram id="l1-cbwcJoqnoQv_BHiVh" name="Packages">
    <mxGraphModel dx="1026" dy="708" grid="1" gridSize="10" guides="1" tooltips="1" connect="1" arrows="1" fold="1" page="1" pageScale="1" pageWidth="1169" pageHeight="827" math="0" shadow="0">
      <root>
        <mxCell id="0" />
        <mxCell id="1" parent="0" />
        <mxCell id="Sist_SNfOV8fq9nMTbyU-3" style="rounded=0;orthogonalLoop=1;jettySize=auto;html=1;startArrow=classic;startFill=1;" parent="1" source="Sist_SNfOV8fq9nMTbyU-1" target="Sist_SNfOV8fq9nMTbyU-2" edge="1">
          <mxGeometry relative="1" as="geometry" />
        </mxCell>
        <mxCell id="UCoBFRGfp6UsjNhdl207-3" style="rounded=0;orthogonalLoop=1;jettySize=auto;html=1;" parent="1" source="Sist_SNfOV8fq9nMTbyU-1" target="UCoBFRGfp6UsjNhdl207-1" edge="1">
          <mxGeometry relative="1" as="geometry" />
        </mxCell>
        <mxCell id="Sist_SNfOV8fq9nMTbyU-1" value="text" style="rounded=0;whiteSpace=wrap;html=1;fillColor=#f5f5f5;strokeColor=#666666;fontColor=#333333;" parent="1" vertex="1">
          <mxGeometry x="360" y="240" width="120" height="40" as="geometry" />
        </mxCell>
        <mxCell id="UCoBFRGfp6UsjNhdl207-4" style="rounded=0;orthogonalLoop=1;jettySize=auto;html=1;" parent="1" source="Sist_SNfOV8fq9nMTbyU-2" target="UCoBFRGfp6UsjNhdl207-1" edge="1">
          <mxGeometry relative="1" as="geometry" />
        </mxCell>
        <mxCell id="Sist_SNfOV8fq9nMTbyU-2" value="number" style="rounded=0;whiteSpace=wrap;html=1;fillColor=#f5f5f5;strokeColor=#666666;fontColor=#333333;" parent="1" vertex="1">
          <mxGeometry x="360" y="400" width="120" height="40" as="geometry" />
        </mxCell>
        <mxCell id="uDIp_uvNLG6hrF9vcne1-2" style="rounded=0;orthogonalLoop=1;jettySize=auto;html=1;" parent="1" source="Sist_SNfOV8fq9nMTbyU-4" target="Sist_SNfOV8fq9nMTbyU-2" edge="1">
          <mxGeometry relative="1" as="geometry" />
        </mxCell>
        <mxCell id="Sist_SNfOV8fq9nMTbyU-4" value="collection" style="rounded=0;whiteSpace=wrap;html=1;fillColor=#f5f5f5;strokeColor=#666666;fontColor=#333333;" parent="1" vertex="1">
          <mxGeometry x="240" y="560" width="120" height="40" as="geometry" />
        </mxCell>
        <mxCell id="UCoBFRGfp6UsjNhdl207-2" style="rounded=0;orthogonalLoop=1;jettySize=auto;html=1;" parent="1" source="S10jYZA5-9crLoaLvnh9-1" target="UCoBFRGfp6UsjNhdl207-1" edge="1">
          <mxGeometry relative="1" as="geometry" />
        </mxCell>
        <mxCell id="S10jYZA5-9crLoaLvnh9-1" value="web" style="rounded=0;whiteSpace=wrap;html=1;fillColor=#f5f5f5;strokeColor=#666666;fontColor=#333333;" parent="1" vertex="1">
          <mxGeometry x="120" y="80" width="120" height="40" as="geometry" />
        </mxCell>
        <mxCell id="S10jYZA5-9crLoaLvnh9-3" style="rounded=0;orthogonalLoop=1;jettySize=auto;html=1;" parent="1" source="S10jYZA5-9crLoaLvnh9-2" target="Sist_SNfOV8fq9nMTbyU-2" edge="1">
          <mxGeometry relative="1" as="geometry" />
        </mxCell>
        <mxCell id="S10jYZA5-9crLoaLvnh9-4" style="edgeStyle=none;rounded=0;orthogonalLoop=1;jettySize=auto;html=1;" parent="1" source="S10jYZA5-9crLoaLvnh9-2" target="Sist_SNfOV8fq9nMTbyU-1" edge="1">
          <mxGeometry relative="1" as="geometry" />
        </mxCell>
        <mxCell id="S10jYZA5-9crLoaLvnh9-5" style="edgeStyle=none;rounded=0;orthogonalLoop=1;jettySize=auto;html=1;" parent="1" source="S10jYZA5-9crLoaLvnh9-2" target="Sist_SNfOV8fq9nMTbyU-4" edge="1">
          <mxGeometry relative="1" as="geometry" />
        </mxCell>
        <mxCell id="UCoBFRGfp6UsjNhdl207-5" style="edgeStyle=orthogonalEdgeStyle;rounded=0;orthogonalLoop=1;jettySize=auto;html=1;" parent="1" source="S10jYZA5-9crLoaLvnh9-2" target="UCoBFRGfp6UsjNhdl207-1" edge="1">
          <mxGeometry relative="1" as="geometry" />
        </mxCell>
        <mxCell id="S10jYZA5-9crLoaLvnh9-2" value="result" style="rounded=0;whiteSpace=wrap;html=1;fillColor=#f5f5f5;strokeColor=#666666;fontColor=#333333;" parent="1" vertex="1">
          <mxGeometry x="120" y="400" width="120" height="40" as="geometry" />
        </mxCell>
        <mxCell id="UCoBFRGfp6UsjNhdl207-1" value="experimental" style="rounded=0;whiteSpace=wrap;html=1;fillColor=#f5f5f5;strokeColor=#666666;fontColor=#333333;" parent="1" vertex="1">
          <mxGeometry x="120" y="240" width="120" height="40" as="geometry" />
        </mxCell>
      </root>
    </mxGraphModel>
  </diagram>
  <diagram name="Types" id="e-w3b1j93T6ePz5dU9Fz">
    <mxGraphModel dx="1426" dy="1108" grid="1" gridSize="10" guides="1" tooltips="1" connect="1" arrows="1" fold="1" page="0" pageScale="1" pageWidth="1169" pageHeight="827" math="0" shadow="0">
      <root>
        <mxCell id="n-zf-RtgYJxClZDW4cF3-0" />
        <mxCell id="n-zf-RtgYJxClZDW4cF3-1" parent="n-zf-RtgYJxClZDW4cF3-0" />
        <mxCell id="5qDygHtCaPb_Zn6L_uWi-19" value="NotBlankString" style="rounded=0;whiteSpace=wrap;html=1;fillColor=#dae8fc;strokeColor=#6c8ebf;" parent="n-zf-RtgYJxClZDW4cF3-1" vertex="1">
          <mxGeometry x="-40" y="400" width="120" height="40" as="geometry" />
        </mxCell>
        <mxCell id="LmunrMnxZoN-5kSQbeMp-0" value="StrictlyNegativeInt" style="rounded=0;whiteSpace=wrap;html=1;fillColor=#dae8fc;strokeColor=#6c8ebf;" parent="n-zf-RtgYJxClZDW4cF3-1" vertex="1">
          <mxGeometry x="540" y="560" width="120" height="40" as="geometry" />
        </mxCell>
        <mxCell id="LmunrMnxZoN-5kSQbeMp-1" value="StrictlyPositiveInt" style="rounded=0;whiteSpace=wrap;html=1;fillColor=#dae8fc;strokeColor=#6c8ebf;" parent="n-zf-RtgYJxClZDW4cF3-1" vertex="1">
          <mxGeometry x="140" y="560" width="120" height="40" as="geometry" />
        </mxCell>
        <mxCell id="LmunrMnxZoN-5kSQbeMp-2" value="AnyInt" style="rounded=0;whiteSpace=wrap;html=1;fillColor=#d5e8d4;strokeColor=#82b366;" parent="n-zf-RtgYJxClZDW4cF3-1" vertex="1">
          <mxGeometry x="360" y="240" width="80" height="40" as="geometry" />
        </mxCell>
        <mxCell id="LmunrMnxZoN-5kSQbeMp-3" value="ZeroInt" style="rounded=0;whiteSpace=wrap;html=1;fillColor=#dae8fc;strokeColor=#6c8ebf;" parent="n-zf-RtgYJxClZDW4cF3-1" vertex="1">
          <mxGeometry x="360" y="560" width="80" height="40" as="geometry" />
        </mxCell>
        <mxCell id="LmunrMnxZoN-5kSQbeMp-4" value="" style="endArrow=block;endSize=16;endFill=0;html=1;rounded=0;dashed=1;" parent="n-zf-RtgYJxClZDW4cF3-1" source="LmunrMnxZoN-5kSQbeMp-1" target="LmunrMnxZoN-5kSQbeMp-6" edge="1">
          <mxGeometry width="160" relative="1" as="geometry">
            <mxPoint x="570" y="90" as="sourcePoint" />
            <mxPoint x="570" y="10" as="targetPoint" />
          </mxGeometry>
        </mxCell>
        <mxCell id="LmunrMnxZoN-5kSQbeMp-5" value="" style="endArrow=block;endSize=16;endFill=0;html=1;rounded=0;dashed=1;" parent="n-zf-RtgYJxClZDW4cF3-1" source="LmunrMnxZoN-5kSQbeMp-0" target="LmunrMnxZoN-5kSQbeMp-6" edge="1">
          <mxGeometry width="160" relative="1" as="geometry">
            <mxPoint x="720" y="90" as="sourcePoint" />
            <mxPoint x="600" y="10" as="targetPoint" />
          </mxGeometry>
        </mxCell>
        <mxCell id="LmunrMnxZoN-5kSQbeMp-6" value="NonZeroInt" style="rounded=0;whiteSpace=wrap;html=1;fillColor=#d5e8d4;strokeColor=#82b366;" parent="n-zf-RtgYJxClZDW4cF3-1" vertex="1">
          <mxGeometry x="360" y="400" width="80" height="40" as="geometry" />
        </mxCell>
        <mxCell id="LmunrMnxZoN-5kSQbeMp-7" value="" style="endArrow=block;endSize=16;endFill=0;html=1;rounded=0;" parent="n-zf-RtgYJxClZDW4cF3-1" source="LmunrMnxZoN-5kSQbeMp-6" target="LmunrMnxZoN-5kSQbeMp-2" edge="1">
          <mxGeometry width="160" relative="1" as="geometry">
            <mxPoint x="720" y="-30" as="sourcePoint" />
            <mxPoint x="600" y="-110" as="targetPoint" />
          </mxGeometry>
        </mxCell>
        <mxCell id="LmunrMnxZoN-5kSQbeMp-8" value="PositiveInt" style="rounded=0;whiteSpace=wrap;html=1;fillColor=#d5e8d4;strokeColor=#82b366;" parent="n-zf-RtgYJxClZDW4cF3-1" vertex="1">
          <mxGeometry x="160" y="400" width="80" height="40" as="geometry" />
        </mxCell>
        <mxCell id="LmunrMnxZoN-5kSQbeMp-9" value="" style="endArrow=block;endSize=16;endFill=0;html=1;rounded=0;dashed=1;" parent="n-zf-RtgYJxClZDW4cF3-1" source="LmunrMnxZoN-5kSQbeMp-1" target="LmunrMnxZoN-5kSQbeMp-8" edge="1">
          <mxGeometry width="160" relative="1" as="geometry">
            <mxPoint x="720" y="210" as="sourcePoint" />
            <mxPoint x="600" y="130" as="targetPoint" />
          </mxGeometry>
        </mxCell>
        <mxCell id="LmunrMnxZoN-5kSQbeMp-10" value="" style="endArrow=block;endSize=16;endFill=0;html=1;rounded=0;" parent="n-zf-RtgYJxClZDW4cF3-1" source="LmunrMnxZoN-5kSQbeMp-8" target="LmunrMnxZoN-5kSQbeMp-2" edge="1">
          <mxGeometry width="160" relative="1" as="geometry">
            <mxPoint x="570" y="-30" as="sourcePoint" />
            <mxPoint x="570" y="-110" as="targetPoint" />
          </mxGeometry>
        </mxCell>
        <mxCell id="LmunrMnxZoN-5kSQbeMp-11" value="NegativeInt" style="rounded=0;whiteSpace=wrap;html=1;fillColor=#d5e8d4;strokeColor=#82b366;" parent="n-zf-RtgYJxClZDW4cF3-1" vertex="1">
          <mxGeometry x="560" y="400" width="80" height="40" as="geometry" />
        </mxCell>
        <mxCell id="LmunrMnxZoN-5kSQbeMp-12" value="" style="endArrow=block;endSize=16;endFill=0;html=1;rounded=0;" parent="n-zf-RtgYJxClZDW4cF3-1" source="LmunrMnxZoN-5kSQbeMp-11" target="LmunrMnxZoN-5kSQbeMp-2" edge="1">
          <mxGeometry width="160" relative="1" as="geometry">
            <mxPoint x="570" y="-30" as="sourcePoint" />
            <mxPoint x="570" y="-110" as="targetPoint" />
          </mxGeometry>
        </mxCell>
        <mxCell id="LmunrMnxZoN-5kSQbeMp-13" value="" style="endArrow=block;endSize=16;endFill=0;html=1;rounded=0;dashed=1;" parent="n-zf-RtgYJxClZDW4cF3-1" source="LmunrMnxZoN-5kSQbeMp-0" target="LmunrMnxZoN-5kSQbeMp-11" edge="1">
          <mxGeometry width="160" relative="1" as="geometry">
            <mxPoint x="750" y="210" as="sourcePoint" />
            <mxPoint x="750" y="130" as="targetPoint" />
          </mxGeometry>
        </mxCell>
        <mxCell id="LmunrMnxZoN-5kSQbeMp-14" value="" style="endArrow=block;endSize=16;endFill=0;html=1;rounded=0;dashed=1;" parent="n-zf-RtgYJxClZDW4cF3-1" source="LmunrMnxZoN-5kSQbeMp-3" target="LmunrMnxZoN-5kSQbeMp-8" edge="1">
          <mxGeometry width="160" relative="1" as="geometry">
            <mxPoint x="750" y="210" as="sourcePoint" />
            <mxPoint x="750" y="130" as="targetPoint" />
          </mxGeometry>
        </mxCell>
        <mxCell id="LmunrMnxZoN-5kSQbeMp-15" value="" style="endArrow=block;endSize=16;endFill=0;html=1;rounded=0;dashed=1;" parent="n-zf-RtgYJxClZDW4cF3-1" source="LmunrMnxZoN-5kSQbeMp-3" target="LmunrMnxZoN-5kSQbeMp-11" edge="1">
          <mxGeometry width="160" relative="1" as="geometry">
            <mxPoint x="600" y="210" as="sourcePoint" />
            <mxPoint x="720" y="130" as="targetPoint" />
          </mxGeometry>
        </mxCell>
        <mxCell id="KGSNlJD_G81D6oTg5-Ko-0" value="NotEmptyList" style="rounded=0;whiteSpace=wrap;html=1;fillColor=#dae8fc;strokeColor=#6c8ebf;" parent="n-zf-RtgYJxClZDW4cF3-1" vertex="1">
          <mxGeometry x="340" y="880" width="120" height="40" as="geometry" />
        </mxCell>
        <mxCell id="KGSNlJD_G81D6oTg5-Ko-1" value="NotEmptySet" style="rounded=0;whiteSpace=wrap;html=1;fillColor=#dae8fc;strokeColor=#6c8ebf;" parent="n-zf-RtgYJxClZDW4cF3-1" vertex="1">
          <mxGeometry x="140" y="880" width="120" height="40" as="geometry" />
        </mxCell>
        <mxCell id="KGSNlJD_G81D6oTg5-Ko-2" value="NotEmptyMap" style="rounded=0;whiteSpace=wrap;html=1;fillColor=#dae8fc;strokeColor=#6c8ebf;" parent="n-zf-RtgYJxClZDW4cF3-1" vertex="1">
          <mxGeometry x="340" y="720" width="120" height="40" as="geometry" />
        </mxCell>
        <mxCell id="GQPVzYVEb98Q7neTcuJy-0" value="NotEmptyCollection" style="rounded=0;whiteSpace=wrap;html=1;fillColor=#d5e8d4;strokeColor=#82b366;" parent="n-zf-RtgYJxClZDW4cF3-1" vertex="1">
          <mxGeometry x="140" y="720" width="120" height="40" as="geometry" />
        </mxCell>
        <mxCell id="GQPVzYVEb98Q7neTcuJy-1" value="" style="endArrow=block;endSize=16;endFill=0;html=1;rounded=0;dashed=1;" parent="n-zf-RtgYJxClZDW4cF3-1" source="KGSNlJD_G81D6oTg5-Ko-0" target="GQPVzYVEb98Q7neTcuJy-0" edge="1">
          <mxGeometry width="160" relative="1" as="geometry">
            <mxPoint x="100" y="1650" as="sourcePoint" />
            <mxPoint x="100" y="1730" as="targetPoint" />
          </mxGeometry>
        </mxCell>
        <mxCell id="GQPVzYVEb98Q7neTcuJy-2" value="" style="endArrow=block;endSize=16;endFill=0;html=1;rounded=0;dashed=1;" parent="n-zf-RtgYJxClZDW4cF3-1" source="KGSNlJD_G81D6oTg5-Ko-1" target="GQPVzYVEb98Q7neTcuJy-0" edge="1">
          <mxGeometry width="160" relative="1" as="geometry">
            <mxPoint x="36.66666666666674" y="1770" as="sourcePoint" />
            <mxPoint x="103.33333333333326" y="1850" as="targetPoint" />
          </mxGeometry>
        </mxCell>
        <mxCell id="cQ7h3U1QdVzSLH1g0f4y-0" value="kotlin.Comparable&lt;br&gt;&amp;lt;in T&amp;gt;" style="rounded=0;whiteSpace=wrap;html=1;fillColor=#f5f5f5;strokeColor=#666666;fontColor=#333333;" parent="n-zf-RtgYJxClZDW4cF3-1" vertex="1">
          <mxGeometry x="340" y="80" width="120" height="40" as="geometry" />
        </mxCell>
        <mxCell id="cQ7h3U1QdVzSLH1g0f4y-1" value="T = NotBlankString" style="endArrow=block;endSize=16;endFill=0;html=1;rounded=0;dashed=1;" parent="n-zf-RtgYJxClZDW4cF3-1" source="5qDygHtCaPb_Zn6L_uWi-19" target="cQ7h3U1QdVzSLH1g0f4y-0" edge="1">
          <mxGeometry width="160" relative="1" as="geometry">
            <mxPoint x="170" y="90" as="sourcePoint" />
            <mxPoint x="250" y="90" as="targetPoint" />
          </mxGeometry>
        </mxCell>
        <mxCell id="cQ7h3U1QdVzSLH1g0f4y-2" value="T = AnyInt" style="endArrow=block;endSize=16;endFill=0;html=1;rounded=0;" parent="n-zf-RtgYJxClZDW4cF3-1" source="LmunrMnxZoN-5kSQbeMp-2" target="cQ7h3U1QdVzSLH1g0f4y-0" edge="1">
          <mxGeometry width="160" relative="1" as="geometry">
            <mxPoint x="290" y="10" as="sourcePoint" />
            <mxPoint x="370" y="-30" as="targetPoint" />
          </mxGeometry>
        </mxCell>
        <mxCell id="MjldotEm2D69VMjSsTHk-0" value="NotEmptyRange" style="rounded=0;whiteSpace=wrap;html=1;fillColor=#fff2cc;strokeColor=#d6b656;" parent="n-zf-RtgYJxClZDW4cF3-1" vertex="1">
          <mxGeometry x="440" y="-80" width="120" height="40" as="geometry" />
        </mxCell>
        <mxCell id="MjldotEm2D69VMjSsTHk-1" value="Bound" style="rounded=0;whiteSpace=wrap;html=1;fillColor=#fff2cc;strokeColor=#d6b656;" parent="n-zf-RtgYJxClZDW4cF3-1" vertex="1">
          <mxGeometry x="260" y="-80" width="80" height="40" as="geometry" />
        </mxCell>
        <mxCell id="MjldotEm2D69VMjSsTHk-2" value="InclusiveBound" style="rounded=0;whiteSpace=wrap;html=1;fillColor=#fff2cc;strokeColor=#d6b656;" parent="n-zf-RtgYJxClZDW4cF3-1" vertex="1">
          <mxGeometry x="440" y="-240" width="120" height="40" as="geometry" />
        </mxCell>
        <mxCell id="MjldotEm2D69VMjSsTHk-3" value="ExclusiveBound" style="rounded=0;whiteSpace=wrap;html=1;fillColor=#fff2cc;strokeColor=#d6b656;" parent="n-zf-RtgYJxClZDW4cF3-1" vertex="1">
          <mxGeometry x="240" y="-240" width="120" height="40" as="geometry" />
        </mxCell>
        <mxCell id="MjldotEm2D69VMjSsTHk-4" value="" style="endArrow=block;endSize=16;endFill=0;html=1;rounded=0;" parent="n-zf-RtgYJxClZDW4cF3-1" source="MjldotEm2D69VMjSsTHk-3" target="MjldotEm2D69VMjSsTHk-1" edge="1">
          <mxGeometry width="160" relative="1" as="geometry">
            <mxPoint x="590" y="-160" as="sourcePoint" />
            <mxPoint x="670" y="-120" as="targetPoint" />
          </mxGeometry>
        </mxCell>
        <mxCell id="MjldotEm2D69VMjSsTHk-5" value="" style="endArrow=block;endSize=16;endFill=0;html=1;rounded=0;" parent="n-zf-RtgYJxClZDW4cF3-1" source="MjldotEm2D69VMjSsTHk-2" target="MjldotEm2D69VMjSsTHk-1" edge="1">
          <mxGeometry width="160" relative="1" as="geometry">
            <mxPoint x="810" y="-78" as="sourcePoint" />
            <mxPoint x="710" y="-58" as="targetPoint" />
          </mxGeometry>
        </mxCell>
        <mxCell id="MjldotEm2D69VMjSsTHk-6" value="" style="endArrow=open;endSize=12;dashed=1;html=1;rounded=0;" parent="n-zf-RtgYJxClZDW4cF3-1" source="MjldotEm2D69VMjSsTHk-0" target="MjldotEm2D69VMjSsTHk-1" edge="1">
          <mxGeometry width="160" relative="1" as="geometry">
            <mxPoint x="430" y="230" as="sourcePoint" />
            <mxPoint x="590" y="230" as="targetPoint" />
          </mxGeometry>
        </mxCell>
        <mxCell id="MjldotEm2D69VMjSsTHk-7" value="" style="endArrow=open;endSize=12;dashed=1;html=1;rounded=0;" parent="n-zf-RtgYJxClZDW4cF3-1" source="MjldotEm2D69VMjSsTHk-1" target="cQ7h3U1QdVzSLH1g0f4y-0" edge="1">
          <mxGeometry width="160" relative="1" as="geometry">
            <mxPoint x="670" y="90" as="sourcePoint" />
            <mxPoint x="670" y="-30" as="targetPoint" />
          </mxGeometry>
        </mxCell>
        <mxCell id="MjldotEm2D69VMjSsTHk-8" value="" style="endArrow=open;endSize=12;dashed=1;html=1;rounded=0;" parent="n-zf-RtgYJxClZDW4cF3-1" source="MjldotEm2D69VMjSsTHk-0" target="cQ7h3U1QdVzSLH1g0f4y-0" edge="1">
          <mxGeometry width="160" relative="1" as="geometry">
            <mxPoint x="638" y="-30" as="sourcePoint" />
            <mxPoint x="443" y="90" as="targetPoint" />
          </mxGeometry>
        </mxCell>
        <mxCell id="Ql_QZ4oFMIsPUIKFdA9x-7" value="" style="endArrow=open;endSize=12;dashed=1;html=1;rounded=0;" parent="n-zf-RtgYJxClZDW4cF3-1" source="GQPVzYVEb98Q7neTcuJy-0" target="LmunrMnxZoN-5kSQbeMp-1" edge="1">
          <mxGeometry width="160" relative="1" as="geometry">
            <mxPoint x="100" y="700" as="sourcePoint" />
            <mxPoint x="210" y="680" as="targetPoint" />
          </mxGeometry>
        </mxCell>
        <mxCell id="Ql_QZ4oFMIsPUIKFdA9x-8" value="" style="endArrow=open;endSize=12;dashed=1;html=1;rounded=0;" parent="n-zf-RtgYJxClZDW4cF3-1" source="KGSNlJD_G81D6oTg5-Ko-2" target="KGSNlJD_G81D6oTg5-Ko-1" edge="1">
          <mxGeometry width="160" relative="1" as="geometry">
            <mxPoint x="530" y="820" as="sourcePoint" />
            <mxPoint x="690" y="820" as="targetPoint" />
          </mxGeometry>
        </mxCell>
        <mxCell id="Ql_QZ4oFMIsPUIKFdA9x-9" value="" style="endArrow=open;endSize=12;dashed=1;html=1;rounded=0;" parent="n-zf-RtgYJxClZDW4cF3-1" source="KGSNlJD_G81D6oTg5-Ko-2" target="KGSNlJD_G81D6oTg5-Ko-0" edge="1">
          <mxGeometry width="160" relative="1" as="geometry">
            <mxPoint x="195" y="1050" as="sourcePoint" />
            <mxPoint x="105" y="930" as="targetPoint" />
          </mxGeometry>
        </mxCell>
        <mxCell id="Ql_QZ4oFMIsPUIKFdA9x-11" value="" style="endArrow=open;endSize=12;dashed=1;html=1;rounded=0;" parent="n-zf-RtgYJxClZDW4cF3-1" source="KGSNlJD_G81D6oTg5-Ko-2" target="LmunrMnxZoN-5kSQbeMp-1" edge="1">
          <mxGeometry width="160" relative="1" as="geometry">
            <mxPoint x="210" y="730" as="sourcePoint" />
            <mxPoint x="210" y="610" as="targetPoint" />
          </mxGeometry>
        </mxCell>
        <mxCell id="Ql_QZ4oFMIsPUIKFdA9x-12" value="StrictlyPositiveDouble" style="rounded=0;whiteSpace=wrap;html=1;fillColor=#fff2cc;strokeColor=#d6b656;" parent="n-zf-RtgYJxClZDW4cF3-1" vertex="1">
          <mxGeometry x="640" y="120" width="160" height="40" as="geometry" />
        </mxCell>
        <mxCell id="Ql_QZ4oFMIsPUIKFdA9x-17" value="" style="endArrow=block;endSize=16;endFill=0;html=1;rounded=0;" parent="n-zf-RtgYJxClZDW4cF3-1" source="Ql_QZ4oFMIsPUIKFdA9x-12" target="cQ7h3U1QdVzSLH1g0f4y-0" edge="1">
          <mxGeometry width="160" relative="1" as="geometry">
            <mxPoint x="-110" y="570" as="sourcePoint" />
            <mxPoint x="-110" y="450" as="targetPoint" />
          </mxGeometry>
        </mxCell>
        <mxCell id="kcxEeAiQgSLV1PlDlmWa-0" value="" style="endArrow=open;endSize=12;dashed=1;html=1;rounded=0;" parent="n-zf-RtgYJxClZDW4cF3-1" source="5qDygHtCaPb_Zn6L_uWi-19" target="LmunrMnxZoN-5kSQbeMp-1" edge="1">
          <mxGeometry width="160" relative="1" as="geometry">
            <mxPoint x="110" y="550" as="sourcePoint" />
            <mxPoint x="110" y="430" as="targetPoint" />
          </mxGeometry>
        </mxCell>
        <mxCell id="1lQ60L8AL4tM8giwlX8u-0" value="" style="group" parent="n-zf-RtgYJxClZDW4cF3-1" connectable="0" vertex="1">
          <mxGeometry x="-360" y="40" width="200" height="440" as="geometry" />
        </mxCell>
        <mxCell id="h1hSW9NAhBlYpWFi9vjb-3" value="Caption" style="rounded=0;whiteSpace=wrap;html=1;verticalAlign=top;align=center;fillColor=none;" parent="1lQ60L8AL4tM8giwlX8u-0" vertex="1">
          <mxGeometry width="200" height="440" as="geometry" />
        </mxCell>
        <mxCell id="h1hSW9NAhBlYpWFi9vjb-4" value="Stable classes" style="rounded=0;whiteSpace=wrap;html=1;fillColor=#dae8fc;strokeColor=#6c8ebf;" parent="1lQ60L8AL4tM8giwlX8u-0" vertex="1">
          <mxGeometry x="40" y="40" width="120" height="40" as="geometry" />
        </mxCell>
        <mxCell id="h1hSW9NAhBlYpWFi9vjb-5" value="Stable interfaces" style="rounded=0;whiteSpace=wrap;html=1;fillColor=#d5e8d4;strokeColor=#82b366;" parent="1lQ60L8AL4tM8giwlX8u-0" vertex="1">
          <mxGeometry x="40" y="120" width="120" height="40" as="geometry" />
        </mxCell>
        <mxCell id="h1hSW9NAhBlYpWFi9vjb-6" value="Experimental type" style="rounded=0;whiteSpace=wrap;html=1;fillColor=#fff2cc;strokeColor=#d6b656;" parent="1lQ60L8AL4tM8giwlX8u-0" vertex="1">
          <mxGeometry x="40" y="200" width="120" height="40" as="geometry" />
        </mxCell>
        <mxCell id="h1hSW9NAhBlYpWFi9vjb-7" value="Deprecated type" style="rounded=0;whiteSpace=wrap;html=1;fillColor=#f8cecc;strokeColor=#b85450;" parent="1lQ60L8AL4tM8giwlX8u-0" vertex="1">
          <mxGeometry x="40" y="280" width="120" height="40" as="geometry" />
        </mxCell>
        <mxCell id="h1hSW9NAhBlYpWFi9vjb-8" value="External type" style="rounded=0;whiteSpace=wrap;html=1;fillColor=#f5f5f5;strokeColor=#666666;fontColor=#333333;" parent="1lQ60L8AL4tM8giwlX8u-0" vertex="1">
          <mxGeometry x="40" y="360" width="120" height="40" as="geometry" />
        </mxCell>
        <mxCell id="OSsei0emG3uxtJ02xCqZ-0" value="EmailAddress" style="rounded=0;whiteSpace=wrap;html=1;fillColor=#fff2cc;strokeColor=#d6b656;" parent="n-zf-RtgYJxClZDW4cF3-1" vertex="1">
          <mxGeometry x="-40" y="80" width="120" height="40" as="geometry" />
        </mxCell>
        <mxCell id="OSsei0emG3uxtJ02xCqZ-1" value="StrictlyNegativeDouble" style="rounded=0;whiteSpace=wrap;html=1;fillColor=#fff2cc;strokeColor=#d6b656;" parent="n-zf-RtgYJxClZDW4cF3-1" vertex="1">
          <mxGeometry x="640" y="40" width="160" height="40" as="geometry" />
        </mxCell>
        <mxCell id="OSsei0emG3uxtJ02xCqZ-2" value="" style="endArrow=block;endSize=16;endFill=0;html=1;rounded=0;" parent="n-zf-RtgYJxClZDW4cF3-1" source="OSsei0emG3uxtJ02xCqZ-1" target="cQ7h3U1QdVzSLH1g0f4y-0" edge="1">
          <mxGeometry width="160" relative="1" as="geometry">
            <mxPoint x="638" y="250" as="sourcePoint" />
            <mxPoint x="443" y="130" as="targetPoint" />
          </mxGeometry>
        </mxCell>
      </root>
    </mxGraphModel>
  </diagram>
  <diagram id="kf0cGJGMJppU8VkJIkRL" name="Idea : File">
    <mxGraphModel dx="1026" dy="1108" grid="1" gridSize="10" guides="1" tooltips="1" connect="1" arrows="1" fold="1" page="0" pageScale="1" pageWidth="1169" pageHeight="827" math="0" shadow="0">
      <root>
        <mxCell id="0" />
        <mxCell id="1" parent="0" />
        <mxCell id="a9Xr_560nWG6MdnzsXiM-1" value="NotBlankString" style="rounded=0;whiteSpace=wrap;html=1;fillColor=#dae8fc;strokeColor=#6c8ebf;" parent="1" vertex="1">
          <mxGeometry x="800" y="240" width="120" height="40" as="geometry" />
        </mxCell>
        <mxCell id="a9Xr_560nWG6MdnzsXiM-2" value="FileName" style="rounded=0;whiteSpace=wrap;html=1;" parent="1" vertex="1">
          <mxGeometry x="560" y="400" width="120" height="40" as="geometry" />
        </mxCell>
        <mxCell id="a9Xr_560nWG6MdnzsXiM-3" value="value: 1..1" style="endArrow=open;endSize=12;dashed=1;html=1;rounded=0;" parent="1" source="a9Xr_560nWG6MdnzsXiM-2" target="a9Xr_560nWG6MdnzsXiM-1" edge="1">
          <mxGeometry x="0.0077" width="160" relative="1" as="geometry">
            <mxPoint x="560" y="370" as="sourcePoint" />
            <mxPoint x="720" y="370" as="targetPoint" />
            <mxPoint as="offset" />
          </mxGeometry>
        </mxCell>
        <mxCell id="sCetcSYR2s8SzarsC_Lb-2" value="FileExtension" style="rounded=0;whiteSpace=wrap;html=1;" parent="1" vertex="1">
          <mxGeometry x="560" y="240" width="120" height="40" as="geometry" />
        </mxCell>
        <mxCell id="sCetcSYR2s8SzarsC_Lb-3" value="extension: 1..1" style="endArrow=open;endSize=12;dashed=1;html=1;rounded=0;" parent="1" source="sCetcSYR2s8SzarsC_Lb-5" target="sCetcSYR2s8SzarsC_Lb-2" edge="1">
          <mxGeometry width="160" relative="1" as="geometry">
            <mxPoint x="630" y="250" as="sourcePoint" />
            <mxPoint x="630" y="170" as="targetPoint" />
          </mxGeometry>
        </mxCell>
        <mxCell id="sCetcSYR2s8SzarsC_Lb-4" value="value: 1..1" style="endArrow=open;endSize=12;dashed=1;html=1;rounded=0;" parent="1" source="sCetcSYR2s8SzarsC_Lb-2" target="a9Xr_560nWG6MdnzsXiM-1" edge="1">
          <mxGeometry width="160" relative="1" as="geometry">
            <mxPoint x="650" y="250" as="sourcePoint" />
            <mxPoint x="730" y="170" as="targetPoint" />
            <mxPoint as="offset" />
          </mxGeometry>
        </mxCell>
        <mxCell id="sCetcSYR2s8SzarsC_Lb-5" value="File" style="rounded=0;whiteSpace=wrap;html=1;" parent="1" vertex="1">
          <mxGeometry x="320" y="240" width="120" height="40" as="geometry" />
        </mxCell>
        <mxCell id="sCetcSYR2s8SzarsC_Lb-7" value="name: 1..1" style="endArrow=open;endSize=12;dashed=1;html=1;rounded=0;" parent="1" source="sCetcSYR2s8SzarsC_Lb-5" target="a9Xr_560nWG6MdnzsXiM-2" edge="1">
          <mxGeometry width="160" relative="1" as="geometry">
            <mxPoint x="650" y="250" as="sourcePoint" />
            <mxPoint x="730" y="170" as="targetPoint" />
            <mxPoint as="offset" />
          </mxGeometry>
        </mxCell>
        <mxCell id="sCetcSYR2s8SzarsC_Lb-8" value="FileSize" style="rounded=0;whiteSpace=wrap;html=1;" parent="1" vertex="1">
          <mxGeometry x="320" y="400" width="120" height="40" as="geometry" />
        </mxCell>
        <mxCell id="sCetcSYR2s8SzarsC_Lb-9" value="size: 1..1" style="endArrow=open;endSize=12;dashed=1;html=1;rounded=0;" parent="1" source="sCetcSYR2s8SzarsC_Lb-5" target="sCetcSYR2s8SzarsC_Lb-8" edge="1">
          <mxGeometry width="160" relative="1" as="geometry">
            <mxPoint x="420" y="290" as="sourcePoint" />
            <mxPoint x="600" y="410" as="targetPoint" />
          </mxGeometry>
        </mxCell>
        <mxCell id="sCetcSYR2s8SzarsC_Lb-10" value="StrictlyPositiveInt" style="rounded=0;whiteSpace=wrap;html=1;fillColor=#dae8fc;strokeColor=#6c8ebf;" parent="1" vertex="1">
          <mxGeometry x="320" y="560" width="120" height="40" as="geometry" />
        </mxCell>
        <mxCell id="sCetcSYR2s8SzarsC_Lb-11" value="FileSizeUnit" style="rounded=0;whiteSpace=wrap;html=1;" parent="1" vertex="1">
          <mxGeometry x="800" y="560" width="120" height="40" as="geometry" />
        </mxCell>
        <mxCell id="sCetcSYR2s8SzarsC_Lb-12" value="value: 1..1" style="endArrow=open;endSize=12;dashed=1;html=1;rounded=0;" parent="1" source="sCetcSYR2s8SzarsC_Lb-8" target="sCetcSYR2s8SzarsC_Lb-10" edge="1">
          <mxGeometry width="160" relative="1" as="geometry">
            <mxPoint x="490" y="370" as="sourcePoint" />
            <mxPoint x="490" y="490" as="targetPoint" />
          </mxGeometry>
        </mxCell>
        <mxCell id="sCetcSYR2s8SzarsC_Lb-13" value="unit: 1..1" style="endArrow=open;endSize=12;dashed=1;html=1;rounded=0;" parent="1" source="sCetcSYR2s8SzarsC_Lb-8" target="sCetcSYR2s8SzarsC_Lb-11" edge="1">
          <mxGeometry width="160" relative="1" as="geometry">
            <mxPoint x="390" y="450" as="sourcePoint" />
            <mxPoint x="390" y="570" as="targetPoint" />
          </mxGeometry>
        </mxCell>
        <mxCell id="sCetcSYR2s8SzarsC_Lb-14" value="symbol: 1..1" style="endArrow=open;endSize=12;dashed=1;html=1;rounded=0;" parent="1" source="sCetcSYR2s8SzarsC_Lb-11" target="a9Xr_560nWG6MdnzsXiM-1" edge="1">
          <mxGeometry width="160" relative="1" as="geometry">
            <mxPoint x="690" y="430" as="sourcePoint" />
            <mxPoint x="810" y="430" as="targetPoint" />
            <mxPoint as="offset" />
          </mxGeometry>
        </mxCell>
        <mxCell id="sCetcSYR2s8SzarsC_Lb-15" value="Octet" style="rounded=0;whiteSpace=wrap;html=1;" parent="1" vertex="1">
          <mxGeometry x="1040" y="720" width="120" height="40" as="geometry" />
        </mxCell>
        <mxCell id="sCetcSYR2s8SzarsC_Lb-16" value="KiloOctet" style="rounded=0;whiteSpace=wrap;html=1;" parent="1" vertex="1">
          <mxGeometry x="1040" y="640" width="120" height="40" as="geometry" />
        </mxCell>
        <mxCell id="sCetcSYR2s8SzarsC_Lb-17" value="MegaOctet" style="rounded=0;whiteSpace=wrap;html=1;" parent="1" vertex="1">
          <mxGeometry x="1040" y="560" width="120" height="40" as="geometry" />
        </mxCell>
        <mxCell id="sCetcSYR2s8SzarsC_Lb-18" value="GigaOctet" style="rounded=0;whiteSpace=wrap;html=1;" parent="1" vertex="1">
          <mxGeometry x="1040" y="480" width="120" height="40" as="geometry" />
        </mxCell>
        <mxCell id="sCetcSYR2s8SzarsC_Lb-19" value="TerraOctet" style="rounded=0;whiteSpace=wrap;html=1;" parent="1" vertex="1">
          <mxGeometry x="1040" y="400" width="120" height="40" as="geometry" />
        </mxCell>
        <mxCell id="sCetcSYR2s8SzarsC_Lb-20" value="" style="endArrow=open;startArrow=circlePlus;endFill=0;startFill=0;endSize=8;html=1;rounded=0;" parent="1" source="sCetcSYR2s8SzarsC_Lb-11" target="sCetcSYR2s8SzarsC_Lb-15" edge="1">
          <mxGeometry width="160" relative="1" as="geometry">
            <mxPoint x="490" y="630" as="sourcePoint" />
            <mxPoint x="650" y="630" as="targetPoint" />
          </mxGeometry>
        </mxCell>
        <mxCell id="sCetcSYR2s8SzarsC_Lb-21" value="" style="endArrow=open;startArrow=circlePlus;endFill=0;startFill=0;endSize=8;html=1;rounded=0;" parent="1" source="sCetcSYR2s8SzarsC_Lb-11" target="sCetcSYR2s8SzarsC_Lb-16" edge="1">
          <mxGeometry width="160" relative="1" as="geometry">
            <mxPoint x="590" y="610" as="sourcePoint" />
            <mxPoint x="430" y="690" as="targetPoint" />
          </mxGeometry>
        </mxCell>
        <mxCell id="sCetcSYR2s8SzarsC_Lb-22" value="" style="endArrow=open;startArrow=circlePlus;endFill=0;startFill=0;endSize=8;html=1;rounded=0;" parent="1" source="sCetcSYR2s8SzarsC_Lb-11" target="sCetcSYR2s8SzarsC_Lb-17" edge="1">
          <mxGeometry width="160" relative="1" as="geometry">
            <mxPoint x="610" y="610" as="sourcePoint" />
            <mxPoint x="530" y="690" as="targetPoint" />
          </mxGeometry>
        </mxCell>
        <mxCell id="sCetcSYR2s8SzarsC_Lb-23" value="" style="endArrow=open;startArrow=circlePlus;endFill=0;startFill=0;endSize=8;html=1;rounded=0;" parent="1" source="sCetcSYR2s8SzarsC_Lb-11" target="sCetcSYR2s8SzarsC_Lb-18" edge="1">
          <mxGeometry width="160" relative="1" as="geometry">
            <mxPoint x="630" y="610" as="sourcePoint" />
            <mxPoint x="630" y="690" as="targetPoint" />
          </mxGeometry>
        </mxCell>
        <mxCell id="sCetcSYR2s8SzarsC_Lb-24" value="" style="endArrow=open;startArrow=circlePlus;endFill=0;startFill=0;endSize=8;html=1;rounded=0;" parent="1" source="sCetcSYR2s8SzarsC_Lb-11" target="sCetcSYR2s8SzarsC_Lb-19" edge="1">
          <mxGeometry width="160" relative="1" as="geometry">
            <mxPoint x="650" y="610" as="sourcePoint" />
            <mxPoint x="730" y="690" as="targetPoint" />
          </mxGeometry>
        </mxCell>
        <mxCell id="sCetcSYR2s8SzarsC_Lb-25" value="MediaType" style="rounded=0;whiteSpace=wrap;html=1;" parent="1" vertex="1">
          <mxGeometry x="560" y="80" width="120" height="40" as="geometry" />
        </mxCell>
        <mxCell id="sCetcSYR2s8SzarsC_Lb-26" value="type: 1..1" style="endArrow=open;endSize=12;dashed=1;html=1;rounded=0;" parent="1" source="sCetcSYR2s8SzarsC_Lb-5" target="sCetcSYR2s8SzarsC_Lb-25" edge="1">
          <mxGeometry width="160" relative="1" as="geometry">
            <mxPoint x="450" y="270" as="sourcePoint" />
            <mxPoint x="570" y="270" as="targetPoint" />
            <mxPoint as="offset" />
          </mxGeometry>
        </mxCell>
        <mxCell id="sCetcSYR2s8SzarsC_Lb-27" value="subtype: 1..1" style="endArrow=open;endSize=12;dashed=1;html=1;rounded=0;" parent="1" source="sCetcSYR2s8SzarsC_Lb-25" target="a9Xr_560nWG6MdnzsXiM-1" edge="1">
          <mxGeometry x="0.0077" width="160" relative="1" as="geometry">
            <mxPoint x="660" y="290" as="sourcePoint" />
            <mxPoint x="840" y="410" as="targetPoint" />
            <mxPoint as="offset" />
          </mxGeometry>
        </mxCell>
        <mxCell id="sCetcSYR2s8SzarsC_Lb-28" value="MediaRegistry" style="rounded=0;whiteSpace=wrap;html=1;" parent="1" vertex="1">
          <mxGeometry x="800" y="80" width="120" height="40" as="geometry" />
        </mxCell>
        <mxCell id="sCetcSYR2s8SzarsC_Lb-29" value="registry: 1..1" style="endArrow=open;endSize=12;dashed=1;html=1;rounded=0;" parent="1" source="sCetcSYR2s8SzarsC_Lb-25" target="sCetcSYR2s8SzarsC_Lb-28" edge="1">
          <mxGeometry x="0.0077" width="160" relative="1" as="geometry">
            <mxPoint x="645" y="130" as="sourcePoint" />
            <mxPoint x="855" y="410" as="targetPoint" />
            <mxPoint as="offset" />
          </mxGeometry>
        </mxCell>
        <mxCell id="sCetcSYR2s8SzarsC_Lb-30" value="Text" style="rounded=0;whiteSpace=wrap;html=1;" parent="1" vertex="1">
          <mxGeometry x="1040" y="-80" width="120" height="40" as="geometry" />
        </mxCell>
        <mxCell id="sCetcSYR2s8SzarsC_Lb-31" value="" style="endArrow=open;startArrow=circlePlus;endFill=0;startFill=0;endSize=8;html=1;rounded=0;" parent="1" source="sCetcSYR2s8SzarsC_Lb-28" target="sCetcSYR2s8SzarsC_Lb-30" edge="1">
          <mxGeometry width="160" relative="1" as="geometry">
            <mxPoint x="690" y="590" as="sourcePoint" />
            <mxPoint x="810" y="590" as="targetPoint" />
          </mxGeometry>
        </mxCell>
        <mxCell id="sCetcSYR2s8SzarsC_Lb-32" value="Image" style="rounded=0;whiteSpace=wrap;html=1;" parent="1" vertex="1">
          <mxGeometry x="1040" width="120" height="40" as="geometry" />
        </mxCell>
        <mxCell id="sCetcSYR2s8SzarsC_Lb-33" value="Audio" style="rounded=0;whiteSpace=wrap;html=1;" parent="1" vertex="1">
          <mxGeometry x="1040" y="80" width="120" height="40" as="geometry" />
        </mxCell>
        <mxCell id="sCetcSYR2s8SzarsC_Lb-34" value="Video" style="rounded=0;whiteSpace=wrap;html=1;" parent="1" vertex="1">
          <mxGeometry x="1040" y="160" width="120" height="40" as="geometry" />
        </mxCell>
        <mxCell id="sCetcSYR2s8SzarsC_Lb-35" value="Application" style="rounded=0;whiteSpace=wrap;html=1;" parent="1" vertex="1">
          <mxGeometry x="1040" y="240" width="120" height="40" as="geometry" />
        </mxCell>
        <mxCell id="sCetcSYR2s8SzarsC_Lb-36" value="" style="endArrow=open;startArrow=circlePlus;endFill=0;startFill=0;endSize=8;html=1;rounded=0;" parent="1" source="sCetcSYR2s8SzarsC_Lb-28" target="sCetcSYR2s8SzarsC_Lb-32" edge="1">
          <mxGeometry width="160" relative="1" as="geometry">
            <mxPoint x="1150" y="130" as="sourcePoint" />
            <mxPoint x="910" y="250" as="targetPoint" />
          </mxGeometry>
        </mxCell>
        <mxCell id="sCetcSYR2s8SzarsC_Lb-37" value="" style="endArrow=open;startArrow=circlePlus;endFill=0;startFill=0;endSize=8;html=1;rounded=0;" parent="1" source="sCetcSYR2s8SzarsC_Lb-28" target="sCetcSYR2s8SzarsC_Lb-33" edge="1">
          <mxGeometry width="160" relative="1" as="geometry">
            <mxPoint x="1170" y="130" as="sourcePoint" />
            <mxPoint x="1050" y="250" as="targetPoint" />
          </mxGeometry>
        </mxCell>
        <mxCell id="sCetcSYR2s8SzarsC_Lb-38" value="" style="endArrow=open;startArrow=circlePlus;endFill=0;startFill=0;endSize=8;html=1;rounded=0;" parent="1" source="sCetcSYR2s8SzarsC_Lb-28" target="sCetcSYR2s8SzarsC_Lb-34" edge="1">
          <mxGeometry width="160" relative="1" as="geometry">
            <mxPoint x="1190" y="130" as="sourcePoint" />
            <mxPoint x="1190" y="250" as="targetPoint" />
          </mxGeometry>
        </mxCell>
        <mxCell id="sCetcSYR2s8SzarsC_Lb-39" value="" style="endArrow=open;startArrow=circlePlus;endFill=0;startFill=0;endSize=8;html=1;rounded=0;" parent="1" source="sCetcSYR2s8SzarsC_Lb-28" target="sCetcSYR2s8SzarsC_Lb-35" edge="1">
          <mxGeometry width="160" relative="1" as="geometry">
            <mxPoint x="1210" y="130" as="sourcePoint" />
            <mxPoint x="1330" y="250" as="targetPoint" />
          </mxGeometry>
        </mxCell>
        <mxCell id="sCetcSYR2s8SzarsC_Lb-45" value="name: 1..1" style="endArrow=open;endSize=12;dashed=1;html=1;rounded=0;" parent="1" source="sCetcSYR2s8SzarsC_Lb-28" target="a9Xr_560nWG6MdnzsXiM-1" edge="1">
          <mxGeometry x="0.0077" width="160" relative="1" as="geometry">
            <mxPoint x="660" y="290" as="sourcePoint" />
            <mxPoint x="840" y="410" as="targetPoint" />
            <mxPoint as="offset" />
          </mxGeometry>
        </mxCell>
        <mxCell id="sCetcSYR2s8SzarsC_Lb-46" value="extensions: 1..n" style="endArrow=open;endSize=12;dashed=1;html=1;rounded=0;" parent="1" source="sCetcSYR2s8SzarsC_Lb-25" target="sCetcSYR2s8SzarsC_Lb-2" edge="1">
          <mxGeometry x="0.0077" width="160" relative="1" as="geometry">
            <mxPoint x="660" y="290" as="sourcePoint" />
            <mxPoint x="840" y="410" as="targetPoint" />
            <mxPoint as="offset" />
          </mxGeometry>
        </mxCell>
        <mxCell id="odpgiF762-WxLMPGXqdM-1" value="" style="group" parent="1" vertex="1" connectable="0">
          <mxGeometry y="40" width="200" height="520" as="geometry" />
        </mxCell>
        <mxCell id="CEByMZrRKwkV6yG6Ug73-1" value="Caption" style="rounded=0;whiteSpace=wrap;html=1;verticalAlign=top;align=center;fillColor=none;" parent="odpgiF762-WxLMPGXqdM-1" vertex="1">
          <mxGeometry width="200" height="520" as="geometry" />
        </mxCell>
        <mxCell id="CEByMZrRKwkV6yG6Ug73-2" value="Stable classes" style="rounded=0;whiteSpace=wrap;html=1;fillColor=#dae8fc;strokeColor=#6c8ebf;" parent="odpgiF762-WxLMPGXqdM-1" vertex="1">
          <mxGeometry x="40" y="40" width="120" height="40" as="geometry" />
        </mxCell>
        <mxCell id="CEByMZrRKwkV6yG6Ug73-3" value="Stable interfaces" style="rounded=0;whiteSpace=wrap;html=1;fillColor=#d5e8d4;strokeColor=#82b366;" parent="odpgiF762-WxLMPGXqdM-1" vertex="1">
          <mxGeometry x="40" y="120" width="120" height="40" as="geometry" />
        </mxCell>
        <mxCell id="CEByMZrRKwkV6yG6Ug73-4" value="Experimental type" style="rounded=0;whiteSpace=wrap;html=1;fillColor=#fff2cc;strokeColor=#d6b656;" parent="odpgiF762-WxLMPGXqdM-1" vertex="1">
          <mxGeometry x="40" y="200" width="120" height="40" as="geometry" />
        </mxCell>
        <mxCell id="CEByMZrRKwkV6yG6Ug73-5" value="Deprecated type" style="rounded=0;whiteSpace=wrap;html=1;fillColor=#f8cecc;strokeColor=#b85450;" parent="odpgiF762-WxLMPGXqdM-1" vertex="1">
          <mxGeometry x="40" y="280" width="120" height="40" as="geometry" />
        </mxCell>
        <mxCell id="CEByMZrRKwkV6yG6Ug73-6" value="External type" style="rounded=0;whiteSpace=wrap;html=1;fillColor=#f5f5f5;strokeColor=#666666;fontColor=#333333;" parent="odpgiF762-WxLMPGXqdM-1" vertex="1">
          <mxGeometry x="40" y="360" width="120" height="40" as="geometry" />
        </mxCell>
        <mxCell id="sCetcSYR2s8SzarsC_Lb-1" value="Type ideas" style="rounded=0;whiteSpace=wrap;html=1;" parent="odpgiF762-WxLMPGXqdM-1" vertex="1">
          <mxGeometry x="40" y="440" width="120" height="40" as="geometry" />
        </mxCell>
      </root>
    </mxGraphModel>
  </diagram>
</mxfile>
